<svg version="1.1" id="Layer_1" xmlns="http://www.w3.org/2000/svg" xmlns:xlink="http://www.w3.org/1999/xlink" x="0px" y="0px"
	 width="100%" viewBox="0 0 1024 1024" enable-background="new 0 0 1024 1024" xml:space="preserve">
<path fill="#000000" opacity="1.000000" stroke="none" 
	d="
M291.093140,304.151398 
	C308.531219,319.155304 328.592438,328.768585 349.650635,336.534668 
	C367.023590,342.941681 384.924835,347.480988 403.009827,351.356659 
	C406.804901,352.170013 409.235138,351.576630 411.629059,347.821014 
	C433.510498,313.493134 464.735931,294.018341 505.517365,291.774780 
	C552.258728,289.203308 588.387024,308.608154 614.047729,347.527802 
	C616.535889,351.301453 618.853149,352.071686 623.009033,351.204407 
	C651.806824,345.194519 679.885925,337.096588 706.080017,323.366730 
	C715.988953,318.172821 725.453308,312.288544 733.853760,304.810638 
	C734.872803,303.903534 735.748108,302.419403 737.927246,302.957886 
	C737.032654,305.832825 734.939148,307.710602 733.093628,309.709290 
	C713.420105,331.015991 688.769043,344.604370 662.260010,355.292999 
	C646.321594,361.719452 629.843506,366.393372 613.209717,370.626007 
	C609.185730,371.649963 607.241211,370.595428 605.262146,367.102112 
	C589.374878,339.057922 565.854370,320.967194 534.204468,314.219818 
	C489.773071,304.747559 444.608795,325.286438 421.776520,364.926422 
	C417.770477,371.881470 417.777222,371.854187 410.173096,369.962860 
	C378.480316,362.080078 348.006042,351.222015 320.482452,333.185730 
	C309.273102,325.840210 299.136322,317.238647 290.433990,307.010162 
	C289.406525,305.802521 287.817627,304.876923 287.927826,302.904236 
	C289.410980,301.899231 289.945679,303.456329 291.093140,304.151398 
z"/>
<path fill="#000000" opacity="1.000000" stroke="none" 
	d="
M630.671021,506.000000 
	C630.667053,499.501190 630.609009,493.501740 630.676575,487.503723 
	C630.741333,481.748108 629.775085,476.774841 622.871460,475.589478 
	C622.333069,475.497070 621.892212,474.836334 620.217834,473.470490 
	C632.257935,473.470490 642.962524,473.470490 654.202393,473.470490 
	C653.493530,474.526215 653.293518,475.194061 652.955811,475.272949 
	C645.256470,477.072235 644.834717,482.912811 645.000122,489.225525 
	C645.139771,494.554077 645.099182,499.890228 645.009583,505.220856 
	C644.959167,508.225128 645.866516,509.892578 649.256409,509.862183 
	C660.086548,509.765137 670.918579,509.795776 681.749084,509.878540 
	C684.843079,509.902161 685.785217,508.434052 685.742188,505.565002 
	C685.637207,498.567932 685.585632,491.566162 685.728027,484.570679 
	C685.816650,480.217072 684.456848,477.103851 679.979370,475.862091 
	C679.206848,475.647858 678.439331,475.203339 678.124817,473.465942 
	C688.366089,473.465942 698.478088,473.465942 708.459045,473.465942 
	C708.952698,474.577515 708.494690,475.221588 707.895142,475.370758 
	C700.852600,477.123199 700.015381,482.302124 700.084412,488.466858 
	C700.269043,504.961456 700.274780,521.460999 700.086853,537.955505 
	C700.009766,544.721252 701.656860,549.830139 709.161072,551.195496 
	C709.612549,551.277710 710.050232,551.658630 710.398560,551.998718 
	C710.596375,552.191833 710.599487,552.584412 710.872437,553.494141 
	C699.559265,553.494141 688.441406,553.494141 677.158813,553.494141 
	C677.366272,552.595337 677.366333,552.312500 677.446533,552.287598 
	C686.165771,549.579163 686.036682,542.611267 685.776733,535.405396 
	C685.560608,529.414368 685.649231,523.407898 685.760864,517.411194 
	C685.815308,514.484436 684.763489,513.154602 681.707214,513.181335 
	C670.876892,513.276184 660.044983,513.292542 649.214600,513.209534 
	C645.836670,513.183655 644.941467,514.860657 644.990295,517.876404 
	C645.111755,525.372864 645.173828,532.872620 645.091919,540.369324 
	C645.034058,545.666626 646.884094,549.419434 652.368042,550.772705 
	C653.316833,551.006836 654.283691,551.401306 654.610535,552.519348 
	C651.722778,554.638855 624.722107,555.017639 619.930542,553.003174 
	C619.781067,551.371582 621.097229,551.217773 622.153870,550.882629 
	C629.303894,548.614746 630.610413,546.947266 630.645203,539.493896 
	C630.696472,528.496155 630.666931,517.497986 630.671021,506.000000 
M688.016052,545.814575 
	C687.907898,547.589050 686.572632,549.190002 687.295288,551.364624 
	C689.345520,551.364624 691.421692,551.364624 693.424744,551.364624 
	C690.855347,526.016724 692.857056,500.853699 692.760559,475.728302 
	C690.922424,475.279053 689.311401,475.066467 687.843872,476.156830 
	C688.727112,499.119965 688.332031,522.036560 688.016052,545.814575 
M633.275879,491.530457 
	C632.898132,511.300201 634.263428,531.099548 632.290894,550.848083 
	C635.328125,551.660400 635.328125,551.660400 637.760498,550.799316 
	C636.243164,525.775269 636.619812,500.892792 637.551697,475.594330 
	C635.913269,475.471497 634.033142,475.000458 631.950684,476.113098 
	C632.960815,480.929565 633.513489,485.707458 633.275879,491.530457 
z"/>
<path fill="#000000" opacity="1.000000" stroke="none" 
	d="
M808.000732,472.789551 
	C815.331543,472.761047 822.172180,472.492859 828.991333,472.764496 
	C837.773499,473.114410 845.266235,476.408112 850.078979,484.135559 
	C856.154358,493.890289 852.400757,506.208740 842.004028,511.199280 
	C840.211304,512.059814 838.331299,512.738342 835.927246,513.734924 
	C842.722839,519.148254 845.879456,526.665405 849.702637,533.739990 
	C854.160217,541.988586 858.228638,550.619263 869.236023,551.382080 
	C868.986694,552.524536 868.970581,553.072266 868.846741,553.097839 
	C861.327698,554.649109 853.714539,554.787476 846.195007,553.567078 
	C842.639221,552.990051 841.286133,549.302490 839.668640,546.413879 
	C835.356445,538.712585 831.205444,530.919861 826.819336,523.261475 
	C824.744385,519.638489 822.331726,516.143250 818.093201,514.690247 
	C815.226135,513.707397 813.103088,514.161133 813.130371,517.879456 
	C813.192566,526.375977 813.228333,534.872620 813.274170,543.369263 
	C813.293152,546.890747 815.311768,548.690674 818.420959,549.911194 
	C820.264893,550.635071 822.861755,550.307556 823.988098,553.577026 
	C811.802795,553.577026 799.936340,553.577026 787.748047,553.577026 
	C788.281189,550.631409 790.464233,550.825562 792.016479,550.358765 
	C796.478088,549.016968 798.599060,545.950684 798.612122,541.469727 
	C798.667603,522.474915 798.669922,503.479858 798.616638,484.485077 
	C798.603943,479.960114 796.627197,476.854065 791.782471,476.101044 
	C790.523682,475.905396 789.123413,475.679504 787.868103,473.332214 
	C794.641541,472.005524 801.117615,472.982147 808.000732,472.789551 
M816.911987,476.178162 
	C813.763062,476.226654 813.129517,478.266266 813.135559,480.877716 
	C813.155457,489.515503 813.136597,498.153381 813.163391,506.791138 
	C813.168579,508.464355 813.238098,510.032837 815.319885,510.771545 
	C825.101990,514.242554 836.854431,506.670471 837.843872,496.453705 
	C839.126221,483.213135 830.515869,474.969635 816.911987,476.178162 
M801.326599,525.499756 
	C801.025574,534.082703 802.330017,542.768982 799.252930,551.437134 
	C802.046753,551.598816 804.425598,552.085815 806.743286,551.066528 
	C806.325562,548.641541 805.751160,546.541199 805.630188,544.415100 
	C804.408997,522.938110 805.058777,501.442963 805.234802,479.956451 
	C805.269775,475.682495 804.017029,474.533813 800.337769,475.852905 
	C802.300903,492.216919 800.924683,508.380005 801.326599,525.499756 
M851.247803,550.892151 
	C848.368164,547.225464 846.012329,543.232056 843.701416,539.189209 
	C839.993958,532.703186 837.110596,525.726440 832.533997,519.764282 
	C830.538574,517.164856 828.514343,514.186829 823.747192,514.629944 
	C827.214294,518.870972 829.725403,522.952271 832.055664,527.144592 
	C835.848999,533.969299 839.607239,540.813538 843.403625,547.636475 
	C845.091125,550.669312 847.386169,552.529175 851.247803,550.892151 
M844.456360,489.384796 
	C842.609924,483.919525 840.042236,479.113251 833.559937,477.437256 
	C840.599670,485.844696 843.557739,494.615997 836.485901,508.048798 
	C842.993652,505.969635 845.485413,500.505768 844.456360,489.384796 
z"/>
<path fill="#000000" opacity="1.000000" stroke="none" 
	d="
M932.317627,524.732971 
	C932.230530,526.772095 932.585999,528.462891 931.251038,529.975586 
	C928.839050,528.834473 929.073975,526.666809 928.605774,524.857910 
	C926.422119,516.421143 920.466553,512.363831 911.937988,513.345764 
	C909.835632,513.587891 908.351929,514.228638 908.408936,516.592590 
	C908.613159,525.062378 907.583008,533.564087 909.191467,542.001648 
	C909.724304,544.796692 910.988647,546.988037 913.371887,548.499390 
	C923.461792,554.898132 942.724854,550.060974 948.434204,539.646729 
	C949.386963,537.908752 949.965942,535.966919 950.734192,534.126221 
	C951.283997,532.809082 951.267029,531.105286 953.022339,530.599976 
	C953.388245,530.705994 953.950073,530.754395 953.972595,530.891663 
	C955.171265,538.169556 953.991455,545.355713 952.900879,552.513428 
	C952.631897,554.279053 950.602905,554.179199 949.118591,554.179321 
	C928.304199,554.181213 907.489746,554.161194 886.675354,554.132324 
	C885.524963,554.130737 884.306152,554.161255 883.672852,552.863159 
	C883.940613,551.109680 885.416138,550.963440 886.648987,550.722229 
	C891.968323,549.681396 894.335754,545.964417 894.418396,541.095032 
	C894.734619,522.455994 894.957581,503.813141 894.316040,485.170654 
	C894.129028,479.737457 891.907166,476.370880 886.382446,475.463287 
	C885.804871,475.368408 885.289734,474.892914 884.733643,474.587433 
	C885.483398,471.970459 887.480774,472.761353 888.920044,472.756348 
	C906.403442,472.695312 923.887756,472.806183 941.369995,472.653137 
	C944.956055,472.621704 946.729675,473.975006 946.939453,477.371704 
	C947.247559,482.359375 949.257019,487.215515 948.572937,492.396484 
	C945.562439,492.419922 945.439514,490.154694 944.765442,488.670624 
	C940.952148,480.275574 934.189209,476.595551 925.305420,476.299500 
	C921.146790,476.160889 916.979004,476.317993 912.817627,476.233795 
	C909.966309,476.176086 908.385864,477.325104 908.383179,480.291046 
	C908.375305,488.950287 908.369812,497.609528 908.357605,506.268768 
	C908.355042,508.094147 908.836304,509.392212 910.921509,509.917236 
	C919.550537,512.089966 926.529053,507.977020 928.791992,499.293976 
	C929.185852,497.782684 929.012329,495.862732 932.315125,495.026306 
	C932.315125,504.972961 932.315125,514.620056 932.317627,524.732971 
M900.780518,512.500000 
	C900.789124,501.526215 900.773254,490.552307 900.820740,479.578674 
	C900.835693,476.119965 899.670898,474.516693 896.163940,475.938232 
	C897.272095,501.139099 897.508240,526.131104 895.799377,551.520142 
	C897.717529,551.433716 899.947937,552.277283 902.201233,550.839050 
	C899.602722,538.395386 901.264465,525.911316 900.780518,512.500000 
M927.999634,510.412659 
	C927.872559,509.514313 928.929199,508.650146 928.108643,507.710297 
	C926.350342,509.172119 924.628601,510.603516 922.756470,512.159973 
	C924.619385,513.818970 926.263672,515.283325 927.953125,516.787842 
	C927.953125,514.675720 927.953125,512.876465 927.999634,510.412659 
M947.971558,549.193604 
	C948.522156,547.380066 949.072754,545.566528 949.623352,543.752930 
	C947.213379,546.060913 944.751953,548.038452 941.664368,550.333862 
	C944.290894,550.507751 946.064636,551.127808 947.971558,549.193604 
z"/>
<path fill="#000000" opacity="1.000000" stroke="none" 
	d="
M314.527466,535.458008 
	C301.430084,520.121948 288.564301,505.053680 274.767456,488.894958 
	C274.605408,492.068665 274.420502,494.074127 274.413910,496.080200 
	C274.368530,509.911316 274.424255,523.743042 274.312744,537.573486 
	C274.258728,544.267700 275.309570,550.005432 283.425995,551.164185 
	C283.948212,551.238770 284.380646,551.941833 284.773315,553.169006 
	C275.997589,554.323547 267.284851,554.455811 257.861053,553.801453 
	C259.608490,550.206177 262.338257,550.653931 264.345520,550.000061 
	C268.240234,548.731262 270.475891,546.557007 271.081726,542.323059 
	C272.034485,535.665161 271.481506,529.011597 271.551300,522.361145 
	C271.659637,512.032349 271.094910,501.678436 271.637482,491.378479 
	C272.005035,484.401154 268.307617,480.655457 263.352661,477.221313 
	C261.926147,476.232666 259.724060,476.223541 259.094177,473.525330 
	C263.060638,471.914124 267.235535,473.278564 271.193970,472.728058 
	C278.155792,471.759979 282.551941,475.098572 286.766083,480.224945 
	C299.036713,495.151764 311.693451,509.761658 324.245483,524.455933 
	C325.622620,526.068054 326.762146,527.989685 328.809448,528.940491 
	C329.099274,528.679260 329.539154,528.468262 329.539917,528.255676 
	C329.592224,513.769470 329.709320,499.282135 329.565125,484.797455 
	C329.524628,480.729248 327.061859,478.155701 323.074432,476.898499 
	C321.130371,476.285522 318.634735,476.598236 316.728241,473.044067 
	C326.147797,472.438141 334.853241,472.686523 343.769012,473.083435 
	C343.341248,475.326843 342.365570,475.791748 341.420410,475.967773 
	C334.437866,477.268311 333.229553,482.233765 333.256042,488.257324 
	C333.343231,508.087128 333.329590,527.917419 333.304504,547.747437 
	C333.302032,549.693970 333.747559,551.753479 331.767548,554.707825 
	C325.267120,548.920410 320.394623,541.943298 314.527466,535.458008 
M293.953186,500.531586 
	C287.598297,493.062500 281.262512,485.576996 274.879486,478.132050 
	C272.149658,474.948090 272.104889,474.986481 267.737305,476.674408 
	C288.113464,500.491364 308.430756,524.239502 329.119110,548.421387 
	C330.568024,544.010315 329.094757,541.407471 326.915863,538.884888 
	C316.051239,526.306213 305.243530,513.678345 293.953186,500.531586 
z"/>
<path fill="#000000" opacity="1.000000" stroke="none" 
	d="
M558.358215,344.180054 
	C558.238281,355.690216 552.555237,363.345428 542.855896,369.086487 
	C548.586243,371.777435 554.247681,373.711548 559.059021,377.153412 
	C562.039307,379.285431 566.686157,381.161255 565.115723,385.770081 
	C563.427612,390.724243 558.457947,390.750702 554.049500,390.237549 
	C548.507263,389.592407 543.420776,387.345490 538.861328,384.254761 
	C535.088501,381.697327 533.485779,382.914276 531.869690,386.625549 
	C528.689087,393.929993 528.726135,401.415405 530.111328,409.237640 
	C527.603699,409.749268 526.570984,408.104614 525.472290,406.815063 
	C520.085144,400.492218 517.678711,392.936493 516.956299,384.844727 
	C516.620728,381.085693 517.934326,377.682404 520.849060,374.986298 
	C529.211426,367.250946 528.735718,362.326447 519.138062,356.439972 
	C518.327576,355.942902 517.205811,355.768494 517.259460,353.589081 
	C532.977783,355.357849 547.521851,353.268951 556.792175,338.349518 
	C559.073975,340.091125 558.052856,342.073151 558.358215,344.180054 
z"/>
<path fill="#000000" opacity="1.000000" stroke="none" 
	d="
M499.440948,354.098877 
	C501.769226,354.084747 503.744598,353.151947 505.872772,354.414246 
	C504.766022,356.613007 502.346375,356.860443 500.714111,358.111237 
	C494.821930,362.626312 494.193176,368.482117 499.826996,373.163269 
	C504.297577,376.877899 505.959717,381.248993 505.302795,386.774261 
	C504.219940,395.881836 501.149872,403.923096 493.084198,409.453278 
	C493.362183,403.902191 494.490295,398.525299 492.794647,393.199890 
	C492.644409,392.727997 492.633301,392.213623 492.512177,391.730408 
	C489.988403,381.662994 489.459930,381.440674 480.397217,386.119385 
	C475.638123,388.576294 470.762726,390.600952 465.203125,390.376587 
	C461.509460,390.227539 458.523132,388.827240 457.289093,385.381042 
	C456.066254,381.966034 459.119781,380.309631 461.330872,378.718231 
	C464.019623,376.783142 466.909088,375.083374 469.857758,373.565338 
	C472.787994,372.056793 475.899384,370.900055 479.916595,369.163055 
	C467.585541,362.214691 463.092987,351.944763 464.816528,338.461884 
	C473.480804,350.164215 484.977753,355.005615 499.440948,354.098877 
z"/>
<path fill="#000000" opacity="1.000000" stroke="none" 
	d="
M568.277588,471.676056 
	C574.312256,471.282410 579.722290,471.836548 584.740112,474.555511 
	C587.621155,476.116638 590.445068,476.203705 593.460449,473.108002 
	C596.177795,481.551880 595.191589,489.101349 595.124451,496.707001 
	C592.004272,496.683594 592.053406,494.749207 591.656860,493.232513 
	C590.635010,489.324219 588.981079,485.700653 586.761108,482.343079 
	C582.234619,475.497314 573.681335,472.770569 566.131104,475.719696 
	C557.936401,478.920563 555.772278,490.807953 562.347351,496.995667 
	C565.530579,499.991425 569.417297,501.951691 573.383057,503.743317 
	C578.840515,506.208771 584.439758,508.363770 589.438904,511.785736 
	C600.495117,519.353821 601.630310,528.395569 599.798035,538.840149 
	C598.260132,547.606873 589.104553,554.188232 578.126648,555.180359 
	C570.785278,555.843750 563.268555,556.062805 556.885437,551.575989 
	C553.466553,549.172791 551.439514,552.075256 548.538452,552.995056 
	C545.714905,543.790894 547.160950,534.708740 546.134644,525.604797 
	C549.955261,525.702942 549.788696,527.988831 550.219238,529.569946 
	C551.497009,534.262573 553.172363,538.773438 555.753235,542.903992 
	C560.519348,550.531677 566.974670,553.323364 575.786255,551.647705 
	C585.970886,549.710938 590.781738,535.908081 584.144958,527.710449 
	C581.440735,524.370239 577.815369,522.360229 574.038025,520.551941 
	C569.233704,518.252014 564.266907,516.237305 559.654663,513.601685 
	C550.147400,508.168945 545.987244,499.149689 547.993225,489.284912 
	C549.988831,479.470459 556.821289,473.411530 568.277588,471.676056 
M573.962036,512.637146 
	C571.403259,511.431335 568.781921,510.341400 566.296326,509.000031 
	C554.146606,502.443298 550.904968,495.419769 554.027588,482.241333 
	C553.567444,482.797760 553.192261,483.120392 552.979492,483.527863 
	C546.677246,495.598145 551.020203,506.969543 564.417114,513.388611 
	C570.418030,516.264038 576.705444,518.564209 582.237793,522.370789 
	C586.808411,525.515686 589.203735,529.813354 589.367981,535.393982 
	C589.491394,539.587280 589.240601,543.691345 587.113953,547.502808 
	C596.404175,539.001770 595.481628,525.381348 585.389954,518.229736 
	C582.093323,515.893494 578.315796,514.539368 573.962036,512.637146 
z"/>
<path fill="#000000" opacity="1.000000" stroke="none" 
	d="
M461.332123,545.628906 
	C461.977814,551.155823 467.923370,549.664734 471.174530,554.089722 
	C461.845093,554.109863 453.667480,554.589966 445.787506,553.823975 
	C445.103821,552.397034 445.546234,551.724426 446.130707,551.563782 
	C453.659821,549.494507 456.539093,543.374451 459.218292,536.935120 
	C467.467896,517.107361 475.784332,497.307159 484.178070,477.540070 
	C485.083191,475.408539 485.123749,472.033722 488.408203,472.046173 
	C491.980652,472.059692 491.942841,475.659302 492.806946,477.933624 
	C499.782532,496.293152 506.515045,514.744995 513.481140,533.108154 
	C516.494324,541.051208 518.180969,550.150208 529.175659,552.083374 
	C528.910583,552.545227 528.645447,553.007080 528.380371,553.468933 
	C516.672363,553.468933 504.964294,553.468933 493.026367,553.468933 
	C493.707306,551.223022 495.126495,551.127380 496.358398,550.690979 
	C501.409943,548.901550 502.482483,547.064026 500.900604,542.091797 
	C499.236450,536.861084 497.237488,531.737854 495.477112,526.536438 
	C494.654022,524.104370 493.065643,523.216553 490.569672,523.250671 
	C484.574219,523.332886 478.576752,523.270813 472.580078,523.258118 
	C470.676483,523.254089 468.787994,523.410095 467.984711,525.489075 
	C465.477814,531.977295 461.892212,538.105591 461.332123,545.628906 
M490.930450,514.360474 
	C488.214294,506.969696 485.498108,499.578888 482.781952,492.188110 
	C482.387512,492.173676 481.993073,492.159241 481.598633,492.144806 
	C477.941925,501.060394 474.285187,509.975983 470.367798,519.527100 
	C478.042542,519.527100 484.892487,519.527100 491.786224,519.527100 
	C492.479279,517.759399 491.580658,516.442078 490.930450,514.360474 
M502.698944,539.075317 
	C504.281250,542.959961 504.257050,547.071289 504.014984,551.275696 
	C506.636017,551.715454 508.857635,552.069580 511.483093,550.859070 
	C503.039368,528.212708 494.665833,505.754547 486.128906,482.858276 
	C482.983490,486.672455 484.613312,489.793488 485.739685,492.869507 
	C491.287567,508.020050 496.871918,523.157227 502.698944,539.075317 
z"/>
<path fill="#000000" opacity="1.000000" stroke="none" 
	d="
M189.534180,501.598206 
	C193.228928,492.808777 196.732590,484.353668 200.335800,475.941193 
	C201.087021,474.187286 201.611252,471.832550 204.246475,472.072235 
	C206.505386,472.277649 206.830292,474.388428 207.463440,476.069366 
	C214.323746,494.282806 221.044159,512.550354 228.082138,530.694763 
	C231.411224,539.277344 232.443878,549.689880 244.511871,552.157898 
	C244.246613,552.602051 243.981354,553.046204 243.716095,553.490356 
	C232.087021,553.490356 220.457932,553.490356 208.782898,553.490356 
	C208.661713,551.211670 210.267517,551.214722 211.408890,550.794861 
	C216.639938,548.870667 217.796646,547.133179 216.246994,541.812195 
	C214.715256,536.552795 212.630920,531.455505 210.830856,526.272583 
	C210.062225,524.059509 208.538773,523.224609 206.256073,523.245117 
	C200.096680,523.300415 193.935532,523.312988 187.776855,523.221680 
	C185.252991,523.184265 183.746674,524.251953 182.839539,526.552979 
	C180.888275,531.502441 178.554535,536.306274 177.243652,541.495544 
	C175.813416,547.157288 176.805679,549.017395 182.241318,550.800476 
	C183.472992,551.204468 184.918671,551.237793 185.886292,554.082581 
	C177.298920,554.006592 169.163940,554.627991 161.282578,553.783447 
	C160.682922,552.333313 161.090103,551.653259 161.704178,551.505737 
	C168.749542,549.812866 171.627838,544.353821 174.105530,538.307312 
	C179.089828,526.143738 184.275696,514.062744 189.534180,501.598206 
M193.708954,500.145477 
	C191.107040,506.487762 188.505142,512.830017 185.643463,519.805542 
	C193.607941,519.889099 200.453430,520.245728 207.989090,519.466370 
	C204.813980,509.662109 201.718994,500.852234 197.564835,491.175018 
	C196.073669,494.638275 195.038696,497.041992 193.708954,500.145477 
M210.800186,507.568268 
	C207.570450,499.541565 205.265106,491.129608 201.246887,483.118073 
	C198.787064,486.242615 199.660217,488.875702 200.678970,491.602051 
	C205.626816,504.843384 210.516556,518.106384 215.416977,531.365417 
	C217.768967,537.729187 220.569885,544.006958 218.889404,551.261108 
	C221.884537,551.780762 224.392441,552.029175 227.077942,551.059387 
	C221.663254,536.595886 216.365891,522.445801 210.800186,507.568268 
z"/>
<path fill="#000000" opacity="1.000000" stroke="none" 
	d="
M380.138855,530.811340 
	C382.549774,535.909668 385.978943,539.746826 389.865479,543.193237 
	C402.662079,554.540649 421.597351,550.322266 428.591156,534.686157 
	C429.358124,532.971436 429.209167,529.215210 432.100372,530.365967 
	C435.149628,531.579529 432.785706,534.502441 431.980957,536.403992 
	C425.395355,551.965149 406.709259,559.512573 388.977997,553.908630 
	C372.996887,548.857727 361.374237,533.954651 360.650940,517.586365 
	C359.690430,495.848297 367.922546,481.005096 385.435333,474.134247 
	C396.069763,469.962036 406.935028,470.558533 417.598053,474.660614 
	C421.410004,476.127075 425.294464,478.696564 428.540771,473.525879 
	C430.840607,478.106567 430.815216,495.405823 428.824432,499.210876 
	C426.025360,498.885590 426.500977,496.284882 425.902832,494.646576 
	C423.503571,488.075348 420.157227,482.292450 414.026886,478.488708 
	C402.820923,471.535736 389.979187,474.180206 382.401947,485.018372 
	C377.009125,492.732056 375.475769,501.558105 375.638611,510.645447 
	C375.760651,517.457947 376.761658,524.254456 380.138855,530.811340 
M374.449951,542.048218 
	C380.060760,548.069275 387.224213,550.935181 395.161865,552.377930 
	C380.621948,547.202881 371.576233,537.314331 368.615601,522.103943 
	C365.756805,507.416382 368.007690,493.839111 377.945648,481.980194 
	C359.589966,494.487976 357.773438,524.661987 374.449951,542.048218 
M421.291412,481.066620 
	C422.569183,482.836792 423.846954,484.606995 425.124725,486.377167 
	C425.084564,484.360931 424.702118,482.565125 423.887177,480.993622 
	C423.403809,480.061493 422.390747,478.420197 421.291412,481.066620 
z"/>
<path fill="#000000" opacity="1.000000" stroke="none" 
	d="
M105.837891,550.497192 
	C111.740463,550.617432 117.207901,551.110168 122.680977,550.004272 
	C131.739502,548.173767 138.099304,543.306824 141.269592,534.492798 
	C141.752563,533.150024 141.840714,531.436646 143.749451,531.113770 
	C144.749252,531.291016 145.274551,532.052856 145.114914,532.886108 
	C143.896057,539.248352 142.603668,545.596741 141.288971,551.940125 
	C140.909500,553.771118 139.440689,554.159912 137.849350,554.158264 
	C116.368187,554.135742 94.887024,554.103943 73.406013,554.032593 
	C72.832031,554.030701 72.259598,553.558960 71.732285,553.326538 
	C71.640633,551.161011 73.250519,551.022278 74.400902,550.854431 
	C80.154449,550.015259 82.346367,546.021057 82.418907,540.994995 
	C82.687935,522.353943 82.993034,503.707489 82.268562,485.065918 
	C82.080750,480.233215 80.445396,476.670013 75.125572,475.824097 
	C74.343193,475.699707 73.589958,475.180206 73.206749,473.470215 
	C85.100510,473.470215 96.829315,473.470215 108.749100,473.470215 
	C108.175797,475.881104 106.435837,475.759705 105.121170,476.166290 
	C98.455887,478.227783 96.631592,479.781128 96.519104,486.606171 
	C96.233765,503.920105 96.310028,521.243408 96.508759,538.559937 
	C96.575798,544.401978 98.403297,549.510803 105.837891,550.497192 
M89.333809,475.616943 
	C87.538994,475.375092 85.726517,474.964294 83.776855,476.303284 
	C83.776855,501.181671 83.776855,526.195557 83.776855,551.577698 
	C85.705002,551.350098 87.972153,552.323364 90.323021,550.719177 
	C88.349518,544.829224 88.671074,538.823608 88.818764,532.862427 
	C89.287872,513.926758 87.639656,494.953217 89.333809,475.616943 
M133.337936,548.554749 
	C132.717346,548.997803 132.096756,549.440857 131.290375,550.016541 
	C136.248840,550.764709 136.534943,550.549438 137.783173,545.432373 
	C136.476089,546.369385 135.169006,547.306396 133.337936,548.554749 
z"/>
<path fill="#000000" opacity="1.000000" stroke="none" 
	d="
M632.681702,640.999512 
	C632.681396,635.508362 632.709106,630.516907 632.671997,625.525879 
	C632.629272,619.780396 634.212769,613.213562 625.650269,612.294922 
	C626.129822,610.240967 627.251099,610.108093 628.165039,610.154541 
	C639.747070,610.743591 651.415405,608.879700 662.929443,611.510498 
	C677.562134,614.853760 685.906372,626.000366 684.776306,640.889465 
	C683.399902,659.023254 674.573303,667.589478 656.366150,668.105896 
	C647.557068,668.355774 638.735535,668.207947 629.920166,668.152344 
	C628.375977,668.142639 626.515747,668.758057 625.033386,666.133972 
	C634.582947,664.608765 632.559387,657.297058 632.674133,650.982727 
	C632.731567,647.822571 632.682129,644.660583 632.681702,640.999512 
M673.606628,645.898376 
	C673.630127,642.899597 673.737183,639.898682 673.662842,636.902344 
	C673.307129,622.579590 663.827637,613.405273 649.556152,613.084167 
	C644.895020,612.979370 642.995911,614.339050 643.115234,619.276672 
	C643.400879,631.100708 643.189636,642.936279 643.232422,654.766907 
	C643.262451,663.062561 647.967407,666.668762 656.255859,665.122131 
	C666.562073,663.199158 671.406494,656.299927 673.606628,645.898376 
M635.181885,638.500000 
	C634.942322,646.142822 635.713806,653.812012 634.459106,661.432739 
	C634.112366,663.539062 634.443787,665.498413 637.803162,665.232422 
	C635.945312,647.683594 637.657837,630.147400 635.548340,612.704285 
	C635.247009,620.984985 635.170776,629.241760 635.181885,638.500000 
M670.763000,620.372009 
	C678.979126,632.662170 678.074524,649.952271 668.587463,661.953247 
	C682.862244,654.241638 681.219482,624.555542 669.027466,618.160034 
	C669.579163,618.860535 669.985413,619.376465 670.763000,620.372009 
z"/>
<path fill="#000000" opacity="1.000000" stroke="none" 
	d="
M765.449524,473.760925 
	C765.356445,474.526855 765.156982,475.237793 764.837769,475.296448 
	C757.246277,476.690643 756.519714,482.584564 756.466248,488.537231 
	C756.315247,505.356171 756.360046,522.177612 756.442078,538.997559 
	C756.471252,544.975830 758.272095,549.860718 765.212646,550.888367 
	C766.172302,551.030457 767.149597,551.454956 767.471313,552.590515 
	C764.591858,554.637207 736.417419,554.951172 731.771790,552.985962 
	C731.661865,551.357056 733.011475,551.091492 734.046265,550.911072 
	C740.345032,549.813293 742.551941,545.487305 742.584106,539.791321 
	C742.684753,521.971802 742.666504,504.151001 742.578125,486.331238 
	C742.552551,481.173645 741.171936,476.718597 735.093140,475.634674 
	C734.329712,475.498505 733.509766,475.079071 733.469177,472.902618 
	C744.067017,472.875763 754.658691,472.209351 765.449524,473.760925 
M748.781006,511.500000 
	C749.097473,499.591858 747.996155,487.659790 749.784607,475.613312 
	C748.587463,475.520630 747.776184,475.399536 746.966553,475.410095 
	C745.991821,475.422852 744.938965,475.253876 744.435425,475.845123 
	C745.065308,501.171783 745.901123,526.195068 743.986328,551.394714 
	C745.876099,551.848145 748.138672,551.842041 750.432129,551.293701 
	C747.371887,538.393127 749.341064,525.393616 748.781006,511.500000 
z"/>
<path fill="#000000" opacity="1.000000" stroke="none" 
	d="
M423.230957,667.174438 
	C409.178314,661.011414 404.248047,652.601624 404.672089,636.057434 
	C404.956604,624.956238 411.962006,615.206543 423.159851,611.218079 
	C431.100311,608.389832 439.260742,608.757446 447.072174,611.908691 
	C449.748688,612.988464 451.946991,613.858215 454.732178,610.479248 
	C456.687683,617.360352 455.520416,623.215271 455.194427,629.065796 
	C452.478882,629.248230 452.486908,627.330566 451.948334,626.119324 
	C447.556549,616.242493 441.630005,611.765381 433.421387,612.247314 
	C426.064697,612.679260 419.376373,618.774109 417.009308,628.218506 
	C413.899445,640.626526 414.794586,652.491760 424.657501,661.959656 
	C432.456238,669.446045 443.968231,666.263855 446.246674,656.264954 
	C447.517944,650.685913 446.080231,648.089294 440.605103,646.128906 
	C439.798706,645.840027 439.038788,645.559265 438.805817,643.610718 
	C447.111633,642.446350 455.289764,643.359192 463.986420,644.365173 
	C456.417053,646.687622 455.977661,652.161926 456.512756,658.132324 
	C456.607056,659.184753 456.484589,660.196960 455.487946,660.746460 
	C445.544922,666.229431 435.695068,672.214722 423.230957,667.174438 
M409.725189,645.106262 
	C409.172882,635.612122 409.366760,626.288818 416.115295,618.466248 
	C405.211761,626.512756 403.627869,646.941406 412.003082,654.549377 
	C411.288208,651.697937 410.573334,648.846436 409.725189,645.106262 
M450.994019,650.259460 
	C451.768402,645.799805 451.768402,645.799805 447.484314,646.336121 
	C449.477539,651.026550 449.217438,655.813171 447.443115,661.767517 
	C452.165771,658.271057 450.034698,654.256714 450.994019,650.259460 
z"/>
<path fill="#000000" opacity="1.000000" stroke="none" 
	d="
M580.918640,655.752686 
	C580.937683,643.129578 580.835388,630.971252 581.039490,618.817993 
	C581.114380,614.357544 579.268555,613.012024 575.051575,613.176331 
	C569.524658,613.391602 566.184387,616.361572 563.718262,620.879028 
	C562.874146,622.425354 562.950867,624.483765 561.209290,625.569580 
	C559.254456,622.847961 559.507202,612.739136 561.571716,610.775757 
	C562.628906,609.770325 564.005554,609.858398 565.344666,609.858765 
	C578.997253,609.862488 592.652100,609.995300 606.301270,609.778259 
	C610.821655,609.706360 612.801147,611.169861 612.391357,615.796997 
	C612.115723,618.910095 614.421570,622.106750 612.430481,625.328857 
	C609.994263,624.804138 610.186401,622.805603 609.596741,621.398743 
	C607.011108,615.229187 600.701111,611.963074 594.172119,613.288025 
	C591.778687,613.773743 591.368469,615.280518 591.370117,617.265747 
	C591.381226,630.587524 591.401489,643.909241 591.394958,657.231018 
	C591.392334,662.669434 594.593262,665.276306 600.247681,665.874146 
	C596.633301,668.582703 577.567871,668.843689 572.543091,666.382141 
	C577.914856,664.669983 581.984985,662.243347 580.918640,655.752686 
M585.629883,658.152771 
	C585.629883,643.148926 585.629883,628.145081 585.629883,612.680542 
	C583.051025,613.765869 583.686829,615.080688 583.636780,616.135742 
	C582.895447,631.757935 585.151367,647.411865 583.135193,663.023682 
	C582.861755,665.140991 583.860474,665.737366 586.025696,664.909729 
	C585.897034,662.959290 585.767822,661.000488 585.629883,658.152771 
z"/>
<path fill="#000000" opacity="1.000000" stroke="none" 
	d="
M338.690369,666.515808 
	C343.517883,664.090820 346.021362,660.233887 347.914001,655.565552 
	C353.472961,641.854248 359.248322,628.229858 365.048523,614.618164 
	C365.836914,612.768066 366.172089,609.950500 368.953217,610.063477 
	C371.525208,610.167847 371.447601,612.888977 372.107086,614.624390 
	C377.302643,628.296326 382.549530,641.952515 387.442963,655.733459 
	C389.200806,660.683960 392.036621,664.342102 396.881836,667.081238 
	C388.365723,668.011292 380.192810,668.585083 371.881531,667.712708 
	C372.046692,666.623596 371.986115,666.131653 372.155884,666.031860 
	C378.380096,662.376160 378.388428,662.379272 375.864380,655.243530 
	C375.254639,653.519714 374.495941,651.842529 373.983154,650.091919 
	C373.152924,647.257812 371.378235,646.008545 368.433777,646.261230 
	C367.113007,646.374634 365.773987,646.275085 364.443237,646.272156 
	C355.037201,646.251587 351.614868,649.552063 350.166290,659.009949 
	C349.439911,663.752502 353.246338,664.621887 357.026367,667.603394 
	C349.925598,667.674011 344.266815,669.506287 338.690369,666.515808 
M370.577484,641.533936 
	C368.639954,636.114929 366.702454,630.695984 364.394897,624.242065 
	C361.316925,631.055786 358.385681,636.646790 356.734222,643.945862 
	C361.859314,642.677734 366.323181,645.253113 370.577484,641.533936 
M369.207153,624.363281 
	C368.483185,622.761963 368.416016,620.803955 365.848419,619.052124 
	C369.739929,635.414978 378.330048,649.405579 380.506165,665.539490 
	C385.079224,665.528259 383.518097,662.718689 382.725800,660.568298 
	C378.357239,648.711304 373.901123,636.886536 369.207153,624.363281 
z"/>
<path fill="#000000" opacity="1.000000" stroke="none" 
	d="
M525.111450,637.000244 
	C525.151978,644.163635 525.212952,650.827087 525.226074,657.490601 
	C525.235291,662.186646 527.581482,664.639038 532.234375,664.720398 
	C535.726990,664.781555 539.268982,664.947998 542.708069,664.476868 
	C548.336670,663.705750 552.531006,660.628052 555.078735,655.428406 
	C555.786987,653.982910 555.950500,652.152100 557.895264,651.232788 
	C560.371521,653.173584 558.541870,655.599243 558.147095,657.472595 
	C555.744812,668.872009 558.696960,668.529663 545.610535,667.999451 
	C535.115295,667.574219 524.657715,667.383484 514.172852,668.083984 
	C511.977081,668.230652 509.536224,668.692993 507.528839,667.255432 
	C507.528839,666.785645 507.459717,666.227417 507.538696,666.205627 
	C514.308716,664.336365 514.934387,659.269165 514.755127,653.328308 
	C514.473816,644.007202 514.673828,634.671448 514.678345,625.341858 
	C514.682556,616.534851 514.687195,616.534851 507.642334,610.772278 
	C516.805969,610.772278 525.009338,610.772278 533.212708,610.772278 
	C524.123108,614.092346 524.764648,621.347229 525.094421,628.504456 
	C525.216980,631.164368 525.112427,633.834778 525.111450,637.000244 
M516.414917,636.421753 
	C516.770508,646.013611 516.640137,655.605286 516.111694,665.232544 
	C519.524780,664.814331 519.612793,664.808838 519.469360,662.509827 
	C518.464417,646.404724 518.824768,630.297485 519.310425,614.188416 
	C519.330994,613.505920 519.087585,612.874939 516.794495,612.450500 
	C515.828918,620.145996 516.681519,627.839111 516.414917,636.421753 
z"/>
<path fill="#000000" opacity="1.000000" stroke="none" 
	d="
M508.355194,429.198120 
	C505.516266,428.499939 503.057312,428.001892 500.748413,427.113861 
	C499.127045,426.490265 496.959167,425.857849 497.092133,423.574860 
	C497.216461,421.439667 499.210968,420.799530 500.906982,420.081543 
	C501.492310,419.833801 502.068390,419.564240 502.651520,419.303375 
	C502.492645,418.842133 502.461029,418.488739 502.276550,418.256989 
	C501.022064,416.680908 498.000397,415.781250 499.293701,413.184143 
	C500.468719,410.824585 503.138000,411.684845 505.182953,412.070160 
	C509.500000,412.883636 513.747498,412.802612 518.060547,412.035309 
	C520.092651,411.673767 522.743042,410.799622 523.947266,413.175385 
	C525.164856,415.577637 522.448914,416.440918 521.148743,417.794800 
	C520.827454,418.129364 520.598083,418.552246 520.243347,419.051575 
	C520.755920,419.330505 521.141663,419.593719 521.565247,419.761902 
	C523.596191,420.568420 526.023865,421.354431 525.856812,423.938080 
	C525.690735,426.505676 523.026428,426.905701 521.067200,427.670013 
	C517.120789,429.209473 512.988708,429.494659 508.355194,429.198120 
z"/>
</svg>