<svg width="883" height="378" viewBox="0 0 883 378" fill="none" xmlns="http://www.w3.org/2000/svg">
<path d="M219.365 12.6028C236.803 27.6067 256.864 37.22 277.922 44.986C295.295 51.3931 313.196 55.9324 331.281 59.808C335.076 60.6214 337.507 60.028 339.901 56.2724C361.782 21.9445 393.007 2.46972 433.789 0.226163C480.53 -2.34531 516.658 17.0595 542.319 55.9792C544.807 59.7528 547.125 60.5231 551.28 59.6558C580.078 53.6459 608.157 45.548 634.351 31.8181C644.26 26.6242 653.725 20.7399 662.125 13.262C663.144 12.3549 664.02 10.8708 666.199 11.4093C665.304 14.2842 663.211 16.162 661.365 18.1607C641.692 39.4674 617.04 53.0558 590.531 63.7444C574.593 70.1708 558.115 74.8448 541.481 79.0774C537.457 80.1013 535.513 79.0468 533.534 75.5535C517.646 47.5093 494.126 29.4186 462.476 22.6712C418.045 13.1989 372.88 33.7378 350.048 73.3778C346.042 80.3329 346.049 80.3056 338.445 78.4142C306.752 70.5315 276.278 59.6734 248.754 41.6371C237.545 34.2916 227.408 25.69 218.705 15.4615C217.678 14.2539 216.089 13.3283 216.199 11.3556C217.682 10.3506 218.217 11.9077 219.365 12.6028Z" fill="black"/>
<path d="M558.942 214.451C558.938 207.953 558.88 201.953 558.948 195.955C559.013 190.2 558.047 185.226 551.143 184.041C550.605 183.948 550.164 183.288 548.489 181.922C560.529 181.922 571.234 181.922 582.474 181.922C581.765 182.978 581.565 183.645 581.227 183.724C573.528 185.524 573.106 191.364 573.272 197.677C573.411 203.005 573.371 208.342 573.281 213.672C573.231 216.677 574.138 218.344 577.528 218.314C588.358 218.217 599.19 218.247 610.021 218.33C613.115 218.354 614.057 216.885 614.014 214.016C613.909 207.019 613.857 200.018 613.999 193.022C614.088 188.668 612.728 185.555 608.251 184.314C607.478 184.099 606.711 183.655 606.396 181.917C616.638 181.917 626.75 181.917 636.73 181.917C637.224 183.029 636.766 183.673 636.167 183.822C629.124 185.575 628.287 190.754 628.356 196.918C628.54 213.413 628.546 229.912 628.358 246.407C628.281 253.173 629.928 258.282 637.433 259.647C637.884 259.729 638.322 260.11 638.67 260.45C638.868 260.643 638.871 261.036 639.144 261.946C627.831 261.946 616.713 261.946 605.43 261.946C605.638 261.047 605.638 260.764 605.718 260.739C614.437 258.031 614.308 251.063 614.048 243.857C613.832 237.866 613.921 231.859 614.032 225.863C614.087 222.936 613.035 221.606 609.979 221.633C599.148 221.728 588.316 221.744 577.486 221.661C574.108 221.635 573.213 223.312 573.262 226.328C573.383 233.824 573.445 241.324 573.363 248.821C573.305 254.118 575.156 257.871 580.639 259.224C581.588 259.458 582.555 259.853 582.882 260.971C579.994 263.09 552.994 263.469 548.202 261.455C548.053 259.823 549.369 259.669 550.425 259.334C557.575 257.066 558.882 255.399 558.917 247.945C558.968 236.948 558.938 225.949 558.942 214.451ZM616.287 254.266C616.179 256.04 614.844 257.641 615.567 259.816C617.617 259.816 619.693 259.816 621.696 259.816C619.127 234.468 621.128 209.305 621.032 184.18C619.194 183.73 617.583 183.518 616.115 184.608C616.999 207.571 616.603 230.488 616.287 254.266ZM561.547 199.982C561.17 219.752 562.535 239.551 560.562 259.299C563.6 260.112 563.6 260.112 566.032 259.251C564.515 234.227 564.891 209.344 565.823 184.046C564.185 183.923 562.305 183.452 560.222 184.565C561.232 189.381 561.785 194.159 561.547 199.982Z" fill="black"/>
<path d="M736.272 181.241C743.603 181.212 750.444 180.944 757.263 181.216C766.045 181.566 773.538 184.86 778.35 192.587C784.426 202.342 780.672 214.66 770.276 219.651C768.483 220.511 766.603 221.19 764.199 222.186C770.994 227.6 774.151 235.117 777.974 242.191C782.432 250.44 786.5 259.071 797.508 259.833C797.258 260.976 797.242 261.524 797.118 261.549C789.599 263.101 781.986 263.239 774.466 262.018C770.911 261.441 769.558 257.754 767.94 254.865C763.628 247.164 759.477 239.371 755.091 231.713C753.016 228.09 750.603 224.595 746.365 223.142C743.498 222.159 741.375 222.613 741.402 226.331C741.464 234.827 741.5 243.324 741.546 251.821C741.565 255.342 743.583 257.142 746.692 258.363C748.536 259.086 751.133 258.759 752.26 262.028C740.074 262.028 728.208 262.028 716.02 262.028C716.553 259.083 718.736 259.277 720.288 258.81C724.75 257.468 726.871 254.402 726.884 249.921C726.939 230.926 726.941 211.931 726.888 192.936C726.875 188.412 724.899 185.305 720.054 184.552C718.795 184.357 717.395 184.131 716.14 181.784C722.913 180.457 729.389 181.434 736.272 181.241ZM745.183 184.63C742.035 184.678 741.401 186.718 741.407 189.329C741.427 197.967 741.408 206.605 741.435 215.243C741.44 216.916 741.51 218.484 743.591 219.223C753.373 222.694 765.126 215.122 766.115 204.905C767.398 191.665 758.787 183.421 745.183 184.63ZM729.598 233.951C729.297 242.534 730.602 251.22 727.524 259.889C730.318 260.05 732.697 260.537 735.015 259.518C734.597 257.093 734.023 254.993 733.902 252.867C732.68 231.39 733.33 209.894 733.506 188.408C733.541 184.134 732.289 182.985 728.609 184.304C730.572 200.668 729.196 216.831 729.598 233.951ZM779.519 259.344C776.64 255.677 774.284 251.683 771.973 247.641C768.265 241.155 765.382 234.178 760.805 228.216C758.81 225.616 756.786 222.638 752.019 223.081C755.486 227.322 757.997 231.404 760.327 235.596C764.12 242.421 767.879 249.265 771.675 256.088C773.363 259.121 775.658 260.981 779.519 259.344ZM772.728 197.836C770.881 192.371 768.314 187.565 761.831 185.889C768.871 194.296 771.829 203.067 764.757 216.5C771.265 214.421 773.757 208.957 772.728 197.836Z" fill="black"/>
<path d="M860.589 233.184C860.502 235.224 860.857 236.914 859.523 238.427C857.111 237.286 857.345 235.118 856.877 233.309C854.694 224.873 848.738 220.815 840.209 221.797C838.107 222.039 836.623 222.68 836.68 225.044C836.885 233.514 835.854 242.016 837.463 250.453C837.996 253.248 839.26 255.439 841.643 256.951C851.733 263.35 870.996 258.512 876.706 248.098C877.658 246.36 878.237 244.418 879.006 242.578C879.555 241.26 879.539 239.557 881.294 239.051C881.66 239.157 882.222 239.206 882.244 239.343C883.443 246.621 882.263 253.807 881.172 260.965C880.903 262.73 878.874 262.631 877.39 262.631C856.576 262.633 835.761 262.613 814.947 262.584C813.796 262.582 812.578 262.613 811.944 261.315C812.212 259.561 813.688 259.415 814.92 259.174C820.24 258.133 822.607 254.416 822.69 249.546C823.006 230.907 823.229 212.265 822.588 193.622C822.401 188.189 820.179 184.822 814.654 183.915C814.076 183.82 813.561 183.344 813.005 183.039C813.755 180.422 815.752 181.213 817.192 181.208C834.675 181.147 852.159 181.258 869.641 181.105C873.228 181.073 875.001 182.426 875.211 185.823C875.519 190.811 877.529 195.667 876.844 200.848C873.834 200.871 873.711 198.606 873.037 197.122C869.224 188.727 862.461 185.047 853.577 184.751C849.418 184.612 845.25 184.769 841.089 184.685C838.238 184.627 836.657 185.777 836.655 188.742C836.647 197.402 836.641 206.061 836.629 214.72C836.627 216.546 837.108 217.844 839.193 218.369C847.822 220.541 854.801 216.428 857.063 207.745C857.457 206.234 857.284 204.314 860.587 203.478C860.587 213.424 860.587 223.071 860.589 233.184ZM829.052 220.951C829.061 209.978 829.045 199.004 829.092 188.03C829.107 184.571 827.942 182.968 824.435 184.39C825.544 209.591 825.78 234.583 824.071 259.972C825.989 259.885 828.219 260.729 830.473 259.29C827.874 246.847 829.536 234.363 829.052 220.951ZM856.271 218.864C856.144 217.966 857.201 217.102 856.38 216.162C854.622 217.624 852.9 219.055 851.028 220.611C852.891 222.27 854.535 223.735 856.225 225.239C856.225 223.127 856.225 221.328 856.271 218.864ZM876.243 257.645C876.794 255.831 877.344 254.018 877.895 252.204C875.485 254.512 873.023 256.49 869.936 258.785C872.562 258.959 874.336 259.579 876.243 257.645Z" fill="black"/>
<path d="M242.799 243.909C229.702 228.573 216.836 213.505 203.039 197.346C202.877 200.52 202.692 202.526 202.685 204.532C202.64 218.363 202.696 232.194 202.584 246.025C202.53 252.719 203.581 258.457 211.697 259.616C212.22 259.69 212.652 260.393 213.045 261.62C204.269 262.775 195.556 262.907 186.133 262.253C187.88 258.658 190.61 259.105 192.617 258.451C196.512 257.183 198.747 255.008 199.353 250.774C200.306 244.117 199.753 237.463 199.823 230.813C199.931 220.484 199.366 210.13 199.909 199.83C200.276 192.853 196.579 189.107 191.624 185.673C190.198 184.684 187.996 184.675 187.366 181.977C191.332 180.366 195.507 181.73 199.465 181.179C206.427 180.211 210.823 183.55 215.038 188.676C227.308 203.603 239.965 218.213 252.517 232.907C253.894 234.519 255.034 236.441 257.081 237.392C257.371 237.131 257.811 236.92 257.811 236.707C257.864 222.221 257.981 207.734 257.837 193.249C257.796 189.181 255.333 186.607 251.346 185.35C249.402 184.737 246.906 185.05 245 181.495C254.419 180.89 263.125 181.138 272.04 181.535C271.613 183.778 270.637 184.243 269.692 184.419C262.709 185.72 261.501 190.685 261.527 196.709C261.615 216.539 261.601 236.369 261.576 256.199C261.573 258.145 262.019 260.205 260.039 263.159C253.539 257.372 248.666 250.395 242.799 243.909ZM222.225 208.983C215.87 201.514 209.534 194.028 203.151 186.583C200.421 183.4 200.376 183.438 196.009 185.126C216.385 208.943 236.702 232.691 257.391 256.873C258.839 252.462 257.366 249.859 255.187 247.336C244.323 234.758 233.515 222.13 222.225 208.983Z" fill="black"/>
<path d="M486.63 52.6314C486.51 64.1416 480.827 71.7968 471.127 77.5379C476.858 80.2288 482.519 82.1629 487.33 85.6048C490.311 87.7368 494.958 89.6126 493.387 94.2215C491.699 99.1756 486.729 99.2021 482.321 98.6889C476.779 98.0438 471.692 95.7969 467.133 92.7061C463.36 90.1487 461.757 91.3657 460.141 95.0769C456.961 102.381 456.998 109.867 458.383 117.689C455.875 118.201 454.842 116.556 453.744 115.266C448.357 108.944 445.95 101.388 445.228 93.2961C444.892 89.5371 446.206 86.1338 449.121 83.4377C457.483 75.7023 457.007 70.7778 447.41 64.8914C446.599 64.3943 445.477 64.2199 445.531 62.0405C461.249 63.8092 475.793 61.7203 485.064 46.8009C487.345 48.5425 486.324 50.5245 486.63 52.6314Z" fill="black"/>
<path d="M427.712 62.5503C430.041 62.5362 432.016 61.6034 434.144 62.8657C433.037 65.0645 430.618 65.3119 428.986 66.5627C423.093 71.0778 422.465 76.9336 428.098 81.6147C432.569 85.3293 434.231 89.7004 433.574 95.2257C432.491 104.333 429.421 112.375 421.356 117.905C421.634 112.354 422.762 106.977 421.066 101.651C420.916 101.179 420.905 100.665 420.784 100.182C418.26 90.1144 417.731 89.8921 408.669 94.5708C403.91 97.0277 399.034 99.0524 393.475 98.828C389.781 98.679 386.795 97.2787 385.561 93.8325C384.338 90.4175 387.391 88.7611 389.602 87.1697C392.291 85.2346 395.181 83.5348 398.129 82.0168C401.059 80.5082 404.171 79.3515 408.188 77.6145C395.857 70.6661 391.364 60.3962 393.088 46.9133C401.752 58.6157 413.249 63.4571 427.712 62.5503Z" fill="black"/>
<path d="M496.549 180.127C502.584 179.734 507.994 180.288 513.012 183.007C515.893 184.568 518.717 184.655 521.732 181.559C524.449 190.003 523.463 197.553 523.396 205.158C520.276 205.135 520.325 203.201 519.928 201.684C518.906 197.776 517.253 194.152 515.033 190.795C510.506 183.949 501.953 181.222 494.403 184.171C486.208 187.372 484.044 199.259 490.619 205.447C493.802 208.443 497.689 210.403 501.655 212.195C507.112 214.66 512.711 216.815 517.71 220.237C528.767 227.805 529.902 236.847 528.069 247.292C526.532 256.058 517.376 262.64 506.398 263.632C499.057 264.295 491.54 264.514 485.157 260.027C481.738 257.624 479.711 260.527 476.81 261.446C473.986 252.242 475.432 243.16 474.406 234.056C478.227 234.154 478.06 236.44 478.491 238.021C479.768 242.714 481.444 247.225 484.025 251.355C488.791 258.983 495.246 261.775 504.058 260.099C514.242 258.162 519.053 244.36 512.416 236.162C509.712 232.822 506.087 230.812 502.309 229.003C497.505 226.703 492.538 224.689 487.926 222.053C478.419 216.62 474.259 207.601 476.265 197.736C478.26 187.922 485.093 181.863 496.549 180.127ZM502.233 221.089C499.675 219.883 497.053 218.793 494.568 217.451C482.418 210.895 479.176 203.871 482.299 190.693C481.839 191.249 481.464 191.572 481.251 191.979C474.949 204.05 479.292 215.421 492.689 221.84C498.689 224.715 504.977 227.016 510.509 230.822C515.08 233.967 517.475 238.265 517.639 243.845C517.763 248.039 517.512 252.143 515.385 255.954C524.676 247.453 523.753 233.833 513.661 226.681C510.365 224.345 506.587 222.991 502.233 221.089Z" fill="black"/>
<path d="M389.604 254.08C390.249 259.607 396.195 258.116 399.446 262.541C390.117 262.561 381.939 263.041 374.059 262.275C373.375 260.848 373.818 260.176 374.402 260.015C381.931 257.946 384.811 251.826 387.49 245.387C395.739 225.559 404.056 205.759 412.45 185.991C413.355 183.86 413.395 180.485 416.68 180.498C420.252 180.511 420.214 184.111 421.078 186.385C428.054 204.745 434.786 223.196 441.753 241.56C444.766 249.503 446.452 258.602 457.447 260.535C457.182 260.997 456.917 261.459 456.652 261.92C444.944 261.92 433.236 261.92 421.298 261.92C421.979 259.674 423.398 259.579 424.63 259.142C429.681 257.353 430.754 255.515 429.172 250.543C427.508 245.313 425.509 240.189 423.749 234.988C422.925 232.556 421.337 231.668 418.841 231.702C412.846 231.784 406.848 231.722 400.852 231.71C398.948 231.706 397.059 231.862 396.256 233.94C393.749 240.429 390.164 246.557 389.604 254.08ZM419.202 222.812C416.486 215.421 413.77 208.03 411.053 200.64C410.659 200.625 410.265 200.611 409.87 200.596C406.213 209.512 402.557 218.427 398.639 227.979C406.314 227.979 413.164 227.979 420.058 227.979C420.751 226.211 419.852 224.893 419.202 222.812ZM430.97 247.527C432.553 251.411 432.529 255.523 432.286 259.727C434.907 260.167 437.129 260.521 439.755 259.31C431.311 236.664 422.937 214.206 414.4 191.31C411.255 195.124 412.885 198.245 414.011 201.321C419.559 216.471 425.143 231.609 430.97 247.527Z" fill="black"/>
<path d="M117.806 210.05C121.5 201.26 125.004 192.805 128.607 184.393C129.358 182.639 129.883 180.284 132.518 180.524C134.777 180.729 135.102 182.84 135.735 184.521C142.595 202.734 149.316 221.002 156.354 239.146C159.683 247.729 160.715 258.141 172.783 260.609C172.518 261.053 172.253 261.498 171.988 261.942C160.358 261.942 148.729 261.942 137.054 261.942C136.933 259.663 138.539 259.666 139.68 259.246C144.911 257.322 146.068 255.585 144.518 250.264C142.987 245.004 140.902 239.907 139.102 234.724C138.334 232.511 136.81 231.676 134.528 231.697C128.368 231.752 122.207 231.764 116.048 231.673C113.524 231.636 112.018 232.703 111.111 235.004C109.16 239.954 106.826 244.758 105.515 249.947C104.085 255.609 105.077 257.469 110.513 259.252C111.744 259.656 113.19 259.689 114.158 262.534C105.57 262.458 97.4354 263.079 89.554 262.235C88.9544 260.785 89.3615 260.105 89.9756 259.957C97.021 258.264 99.8993 252.805 102.377 246.759C107.361 234.595 112.547 222.514 117.806 210.05ZM121.98 208.597C119.378 214.939 116.777 221.281 113.915 228.257C121.879 228.341 128.725 228.697 136.261 227.918C133.085 218.114 129.99 209.304 125.836 199.626C124.345 203.09 123.31 205.493 121.98 208.597ZM139.072 216.02C135.842 207.993 133.537 199.581 129.518 191.569C127.059 194.694 127.932 197.327 128.95 200.053C133.898 213.295 138.788 226.558 143.688 239.817C146.04 246.181 148.841 252.458 147.161 259.713C150.156 260.232 152.664 260.481 155.349 259.511C149.935 245.047 144.637 230.897 139.072 216.02Z" fill="black"/>
<path d="M308.41 239.263C310.821 244.361 314.25 248.198 318.137 251.645C330.934 262.992 349.869 258.774 356.863 243.138C357.63 241.423 357.481 237.667 360.372 238.817C363.421 240.031 361.057 242.954 360.252 244.855C353.667 260.417 334.981 267.964 317.249 262.36C301.268 257.309 289.646 242.406 288.922 226.038C287.962 204.3 296.194 189.457 313.707 182.586C324.341 178.413 335.206 179.01 345.87 183.112C349.681 184.578 353.566 187.148 356.812 181.977C359.112 186.558 359.087 203.857 357.096 207.662C354.297 207.337 354.772 204.736 354.174 203.098C351.775 196.527 348.429 190.744 342.298 186.94C331.092 179.987 318.251 182.632 310.673 193.47C305.281 201.183 303.747 210.01 303.91 219.097C304.032 225.909 305.033 232.706 308.41 239.263ZM302.721 250.5C308.332 256.521 315.496 259.387 323.433 260.829C308.893 255.654 299.848 245.766 296.887 230.555C294.028 215.868 296.279 202.291 306.217 190.432C287.861 202.939 286.045 233.113 302.721 250.5ZM349.563 189.518C350.841 191.288 352.118 193.058 353.396 194.829C353.356 192.812 352.974 191.017 352.159 189.445C351.675 188.513 350.662 186.872 349.563 189.518Z" fill="black"/>
<path d="M34.1094 258.949C40.0119 259.069 45.4794 259.562 50.9524 258.456C60.011 256.625 66.3708 251.758 69.5411 242.944C70.024 241.601 70.1122 239.888 72.0209 239.565C73.0207 239.742 73.546 240.504 73.3864 241.338C72.1675 247.7 70.8751 254.048 69.5604 260.392C69.181 262.223 67.7122 262.611 66.1208 262.61C44.6396 262.587 23.1585 262.555 1.67747 262.484C1.10349 262.482 0.531059 262.01 0.00374591 261.778C-0.0879061 259.612 1.52198 259.474 2.67236 259.306C8.42591 258.467 10.6178 254.472 10.6904 249.446C10.9594 230.805 11.2645 212.159 10.54 193.517C10.3522 188.685 8.71686 185.121 3.39703 184.276C2.61465 184.151 1.86142 183.632 1.47821 181.922C13.372 181.922 25.1008 181.922 37.0206 181.922C36.4473 184.333 34.7073 184.211 33.3926 184.618C26.7273 186.679 24.9031 188.233 24.7906 195.058C24.5052 212.372 24.5815 229.695 24.7802 247.011C24.8473 252.853 26.6748 257.962 34.1094 258.949ZM17.6053 184.068C15.8105 183.827 13.998 183.416 12.0483 184.755C12.0483 209.633 12.0483 234.647 12.0483 260.029C13.9765 259.802 16.2436 260.775 18.5945 259.171C16.621 253.281 16.9425 247.275 17.0902 241.314C17.5593 222.378 15.9111 203.405 17.6053 184.068ZM61.6094 257.006C60.9888 257.449 60.3682 257.892 59.5618 258.468C64.5203 259.216 64.8064 259.001 66.0546 253.884C64.7476 254.821 63.4405 255.758 61.6094 257.006Z" fill="black"/>
<path d="M560.953 349.451C560.953 343.96 560.981 338.968 560.943 333.977C560.901 328.232 562.484 321.665 553.922 320.746C554.401 318.692 555.523 318.56 556.436 318.606C568.018 319.195 579.687 317.331 591.201 319.962C605.834 323.305 614.178 334.452 613.048 349.341C611.671 367.475 602.845 376.041 584.638 376.557C575.828 376.807 567.007 376.659 558.192 376.604C556.647 376.594 554.787 377.209 553.305 374.585C562.854 373.06 560.831 365.749 560.946 359.434C561.003 356.274 560.954 353.112 560.953 349.451ZM601.878 354.35C601.902 351.351 602.009 348.35 601.934 345.354C601.579 331.031 592.099 321.857 577.828 321.536C573.166 321.431 571.267 322.79 571.387 327.728C571.672 339.552 571.461 351.388 571.504 363.218C571.534 371.514 576.239 375.12 584.527 373.574C594.833 371.651 599.678 364.751 601.878 354.35ZM563.453 346.951C563.214 354.594 563.985 362.263 562.731 369.884C562.384 371.991 562.715 373.95 566.075 373.684C564.217 356.135 565.929 338.599 563.82 321.156C563.518 329.436 563.442 337.693 563.453 346.951ZM599.034 328.823C607.251 341.114 606.346 358.404 596.859 370.405C611.134 362.693 609.491 333.007 597.299 326.611C597.851 327.312 598.257 327.828 599.034 328.823Z" fill="black"/>
<path d="M693.721 182.212C693.628 182.978 693.428 183.689 693.109 183.748C685.518 185.142 684.791 191.036 684.738 196.989C684.587 213.808 684.632 230.629 684.714 247.449C684.743 253.427 686.544 258.312 693.484 259.34C694.444 259.482 695.421 259.906 695.743 261.042C692.863 263.089 664.689 263.403 660.043 261.437C659.933 259.808 661.283 259.543 662.318 259.362C668.617 258.265 670.823 253.939 670.856 248.243C670.956 230.423 670.938 212.602 670.85 194.783C670.824 189.625 669.443 185.17 663.365 184.086C662.601 183.95 661.781 183.53 661.741 181.354C672.339 181.327 682.93 180.661 693.721 182.212ZM677.053 219.951C677.369 208.043 676.268 196.111 678.056 184.065C676.859 183.972 676.048 183.851 675.238 183.861C674.263 183.874 673.21 183.705 672.707 184.297C673.337 209.623 674.173 234.646 672.258 259.846C674.148 260.3 676.41 260.293 678.704 259.745C675.643 246.845 677.613 233.845 677.053 219.951Z" fill="black"/>
<path d="M351.502 375.626C337.45 369.463 332.519 361.053 332.944 344.509C333.228 333.408 340.233 323.658 351.431 319.669C359.372 316.841 367.532 317.209 375.344 320.36C378.02 321.44 380.218 322.31 383.004 318.931C384.959 325.812 383.792 331.667 383.466 337.517C380.75 337.7 380.758 335.782 380.22 334.571C375.828 324.694 369.901 320.217 361.693 320.699C354.336 321.131 347.648 327.226 345.281 336.67C342.171 349.078 343.066 360.943 352.929 370.411C360.728 377.897 372.24 374.715 374.518 364.716C375.789 359.137 374.352 356.541 368.877 354.58C368.07 354.291 367.31 354.011 367.077 352.062C375.383 350.898 383.561 351.811 392.258 352.817C384.689 355.139 384.249 360.613 384.784 366.584C384.879 367.636 384.756 368.648 383.759 369.198C373.816 374.681 363.967 380.666 351.502 375.626ZM337.997 353.558C337.444 344.064 337.638 334.74 344.387 326.918C333.483 334.964 331.899 355.393 340.275 363.001C339.56 360.149 338.845 357.298 337.997 353.558ZM379.265 358.711C380.04 354.251 380.04 354.251 375.756 354.788C377.749 359.478 377.489 364.265 375.715 370.219C380.437 366.722 378.306 362.708 379.265 358.711Z" fill="black"/>
<path d="M509.19 364.204C509.209 351.581 509.107 339.423 509.311 327.269C509.386 322.809 507.54 321.463 503.323 321.628C497.796 321.843 494.456 324.813 491.99 329.33C491.146 330.877 491.222 332.935 489.481 334.021C487.526 331.299 487.779 321.191 489.843 319.227C490.9 318.222 492.277 318.31 493.616 318.31C507.269 318.314 520.924 318.447 534.573 318.23C539.093 318.158 541.073 319.621 540.663 324.248C540.387 327.362 542.693 330.558 540.702 333.78C538.266 333.256 538.458 331.257 537.868 329.85C535.283 323.681 528.973 320.414 522.444 321.739C520.05 322.225 519.64 323.732 519.642 325.717C519.653 339.039 519.673 352.361 519.666 365.682C519.664 371.121 522.865 373.728 528.519 374.326C524.905 377.034 505.839 377.295 500.815 374.834C506.186 373.121 510.256 370.695 509.19 364.204ZM513.901 366.604C513.901 351.6 513.901 336.596 513.901 321.132C511.322 322.217 511.958 323.532 511.908 324.587C511.167 340.209 513.423 355.863 511.407 371.475C511.133 373.592 512.132 374.189 514.297 373.361C514.168 371.411 514.039 369.452 513.901 366.604Z" fill="black"/>
<path d="M266.962 374.967C271.789 372.542 274.293 368.685 276.185 364.017C281.744 350.306 287.52 336.681 293.32 323.07C294.108 321.219 294.444 318.402 297.225 318.515C299.797 318.619 299.719 321.34 300.379 323.076C305.574 336.748 310.821 350.404 315.714 364.185C317.472 369.135 320.308 372.794 325.153 375.533C316.637 376.463 308.464 377.036 300.153 376.164C300.318 375.075 300.258 374.583 300.427 374.483C306.652 370.828 306.66 370.831 304.136 363.695C303.526 361.971 302.767 360.294 302.255 358.543C301.424 355.709 299.65 354.46 296.705 354.713C295.384 354.826 294.045 354.727 292.715 354.724C283.309 354.703 279.886 358.003 278.438 367.461C277.711 372.204 281.518 373.073 285.298 376.055C278.197 376.125 272.538 377.958 266.962 374.967ZM298.849 349.985C296.911 344.566 294.974 339.147 292.666 332.693C289.588 339.507 286.657 345.098 285.006 352.397C290.131 351.129 294.595 353.705 298.849 349.985ZM297.479 332.815C296.755 331.213 296.687 329.255 294.12 327.504C298.011 343.866 306.602 357.857 308.778 373.991C313.351 373.98 311.79 371.17 310.997 369.02C306.629 357.163 302.173 345.338 297.479 332.815Z" fill="black"/>
<path d="M453.383 345.452C453.423 352.615 453.484 359.279 453.498 365.942C453.507 370.638 455.853 373.09 460.506 373.172C463.998 373.233 467.54 373.399 470.98 372.928C476.608 372.157 480.802 369.079 483.35 363.88C484.058 362.434 484.222 360.604 486.167 359.684C488.643 361.625 486.813 364.051 486.419 365.924C484.016 377.323 486.968 376.981 473.882 376.451C463.387 376.026 452.929 375.835 442.444 376.535C440.249 376.682 437.808 377.144 435.8 375.707C435.8 375.237 435.731 374.679 435.81 374.657C442.58 372.788 443.206 367.721 443.027 361.78C442.745 352.459 442.945 343.123 442.95 333.793C442.954 324.986 442.959 324.986 435.914 319.224C445.077 319.224 453.281 319.224 461.484 319.224C452.395 322.544 453.036 329.799 453.366 336.956C453.488 339.616 453.384 342.286 453.383 345.452ZM444.686 344.873C445.042 354.465 444.912 364.057 444.383 373.684C447.796 373.266 447.884 373.26 447.741 370.961C446.736 354.856 447.096 338.749 447.582 322.64C447.602 321.957 447.359 321.326 445.066 320.902C444.1 328.597 444.953 336.291 444.686 344.873Z" fill="black"/>
<path d="M436.627 137.65C433.788 136.951 431.329 136.453 429.02 135.565C427.399 134.942 425.231 134.309 425.364 132.026C425.488 129.891 427.482 129.251 429.178 128.533C429.764 128.285 430.34 128.016 430.923 127.755C430.764 127.294 430.732 126.94 430.548 126.708C429.294 125.132 426.272 124.233 427.565 121.636C428.74 119.276 431.409 120.136 433.454 120.522C437.771 121.335 442.019 121.254 446.332 120.487C448.364 120.125 451.015 119.251 452.219 121.627C453.436 124.029 450.72 124.892 449.42 126.246C449.099 126.581 448.87 127.004 448.515 127.503C449.027 127.782 449.413 128.045 449.837 128.213C451.868 129.02 454.295 129.806 454.128 132.39C453.962 134.957 451.298 135.357 449.339 136.121C445.392 137.661 441.26 137.946 436.627 137.65Z" fill="black"/>
</svg>
